<?xml version="1.0" encoding="utf-8"?>
<!-- Generator: Adobe Illustrator 25.4.1, SVG Export Plug-In . SVG Version: 6.00 Build 0)  -->
<svg version="1.1" id="Layer_1" xmlns="http://www.w3.org/2000/svg" xmlns:xlink="http://www.w3.org/1999/xlink" x="0px" y="0px"
	 viewBox="0 0 278 155.3" style="enable-background:new 0 0 278 155.3;" xml:space="preserve">
<style type="text/css">
	.st0{fill:none;stroke:#AD956F;stroke-width:4.708;stroke-linecap:round;stroke-linejoin:round;stroke-dasharray:0,14.227;}
	.st1{fill:none;stroke:#AD956F;stroke-width:4.708;stroke-linecap:round;stroke-linejoin:round;}
	.st2{fill:#AD956F;}
	.st3{fill:none;}
	.st4{clip-path:url(#SVGID_00000013886038131055017990000011326156803778895539_);fill:#AD956F;}
	.st5{clip-path:url(#SVGID_00000013886038131055017990000011326156803778895539_);fill:#B79B6F;}
	.st6{clip-path:url(#SVGID_00000170976300106452890290000002422923562648762264_);}
	.st7{clip-path:url(#SVGID_00000073710364398234430920000008656612716980391083_);}
	.st8{clip-path:url(#SVGID_00000088853233912474802100000001826087941610025600_);fill:#AD956F;}
	.st9{clip-path:url(#SVGID_00000088853233912474802100000001826087941610025600_);fill:#FFFFFF;}
	
		.st10{clip-path:url(#SVGID_00000073710364398234430920000008656612716980391083_);fill:none;stroke:#AD956F;stroke-width:4.901;stroke-linecap:round;stroke-linejoin:round;stroke-dasharray:0,15.005;}
	
		.st11{clip-path:url(#SVGID_00000018941292291992599280000015971409072969758135_);fill:none;stroke:#AD956F;stroke-width:4.901;stroke-linecap:round;stroke-linejoin:round;stroke-dasharray:0,14.66;}
	
		.st12{clip-path:url(#SVGID_00000018941292291992599280000015971409072969758135_);fill:none;stroke:#AD956F;stroke-width:4.901;stroke-linecap:round;stroke-linejoin:round;}
	
		.st13{clip-path:url(#SVGID_00000073710364398234430920000008656612716980391083_);fill:none;stroke:#AD956F;stroke-width:3.676;stroke-linecap:round;stroke-linejoin:round;stroke-dasharray:0,9.25;}
	
		.st14{clip-path:url(#SVGID_00000073710364398234430920000008656612716980391083_);fill:none;stroke:#AD956F;stroke-width:3.676;stroke-linecap:round;stroke-linejoin:round;}
	
		.st15{clip-path:url(#SVGID_00000073710364398234430920000008656612716980391083_);fill:none;stroke:#AD956F;stroke-width:3.676;stroke-linecap:round;stroke-linejoin:round;stroke-dasharray:0,11.061;}
	
		.st16{clip-path:url(#SVGID_00000073710364398234430920000008656612716980391083_);fill:none;stroke:#AD956F;stroke-width:3.676;stroke-linecap:round;stroke-linejoin:round;stroke-dasharray:0,11.198;}
	
		.st17{clip-path:url(#SVGID_00000073710364398234430920000008656612716980391083_);fill:none;stroke:#AD956F;stroke-width:3.676;stroke-linecap:round;stroke-linejoin:round;stroke-dasharray:0,11.254;}
	
		.st18{clip-path:url(#SVGID_00000073710364398234430920000008656612716980391083_);fill:none;stroke:#AD956F;stroke-width:3.676;stroke-linecap:round;stroke-linejoin:round;stroke-dasharray:0,10.281;}
	
		.st19{clip-path:url(#SVGID_00000073710364398234430920000008656612716980391083_);fill:none;stroke:#AD956F;stroke-width:3.676;stroke-linecap:round;stroke-linejoin:round;stroke-dasharray:0,9.169;}
	
		.st20{clip-path:url(#SVGID_00000073710364398234430920000008656612716980391083_);fill:none;stroke:#AD956F;stroke-width:3.676;stroke-linecap:round;stroke-linejoin:round;stroke-dasharray:0,9.877;}
	
		.st21{clip-path:url(#SVGID_00000073710364398234430920000008656612716980391083_);fill:none;stroke:#AD956F;stroke-width:3.676;stroke-linecap:round;stroke-linejoin:round;stroke-dasharray:0,11.088;}
	
		.st22{clip-path:url(#SVGID_00000073710364398234430920000008656612716980391083_);fill:none;stroke:#AD956F;stroke-width:3.676;stroke-linecap:round;stroke-linejoin:round;stroke-dasharray:0,10.417;}
	
		.st23{clip-path:url(#SVGID_00000073710364398234430920000008656612716980391083_);fill:none;stroke:#AD956F;stroke-width:3.676;stroke-linecap:round;stroke-linejoin:round;stroke-dasharray:0,11.124;}
	.st24{filter:url(#Adobe_OpacityMaskFilter);}
	
		.st25{clip-path:url(#SVGID_00000040539803665585276750000001965354975551059877_);fill:url(#SVGID_00000075124745876255839280000017954674552341567665_);}
	
		.st26{clip-path:url(#SVGID_00000040539803665585276750000001965354975551059877_);mask:url(#SVGID_00000112613526956578743610000011278734101692651925_);}
	.st27{clip-path:url(#SVGID_00000089575847304418051570000011716945174517209492_);}
	.st28{filter:url(#Adobe_OpacityMaskFilter_00000074444318827964222300000014198305696863153319_);}
	
		.st29{clip-path:url(#SVGID_00000168105583999979785990000014245587662808542903_);fill:url(#SVGID_00000043422771619188809330000002152338902659849102_);}
	.st30{clip-path:url(#SVGID_00000168105583999979785990000014245587662808542903_);}
	.st31{clip-path:url(#SVGID_00000039122095724741624500000002970285361107752381_);}
	.st32{clip-path:url(#SVGID_00000123423329863848301290000018179016244083422650_);}
	.st33{clip-path:url(#SVGID_00000026855184464157236660000008302062155631326871_);}
	.st34{clip-path:url(#SVGID_00000074423006870693482550000003003546129534484635_);fill:#AD956F;}
	.st35{clip-path:url(#SVGID_00000074423006870693482550000003003546129534484635_);fill:#FFFFFF;}
	
		.st36{clip-path:url(#SVGID_00000026855184464157236660000008302062155631326871_);fill:none;stroke:#AD956F;stroke-width:3.676;stroke-linecap:round;stroke-linejoin:round;stroke-dasharray:0,11.234;}
	
		.st37{clip-path:url(#SVGID_00000026855184464157236660000008302062155631326871_);fill:none;stroke:#AD956F;stroke-width:3.676;stroke-linecap:round;stroke-linejoin:round;}
	
		.st38{clip-path:url(#SVGID_00000026855184464157236660000008302062155631326871_);fill:none;stroke:#AD956F;stroke-width:3.676;stroke-linecap:round;stroke-linejoin:round;stroke-dasharray:0,9.979;}
	
		.st39{clip-path:url(#SVGID_00000026855184464157236660000008302062155631326871_);fill:none;stroke:#AD956F;stroke-width:3.676;stroke-linecap:round;stroke-linejoin:round;stroke-dasharray:0,10.495;}
	
		.st40{clip-path:url(#SVGID_00000026855184464157236660000008302062155631326871_);fill:none;stroke:#AD956F;stroke-width:3.676;stroke-linecap:round;stroke-linejoin:round;stroke-dasharray:0,9.83;}
	
		.st41{clip-path:url(#SVGID_00000026855184464157236660000008302062155631326871_);fill:none;stroke:#AD956F;stroke-width:3.676;stroke-linecap:round;stroke-linejoin:round;stroke-dasharray:0,11.926;}
	
		.st42{clip-path:url(#SVGID_00000026855184464157236660000008302062155631326871_);fill:none;stroke:#AD956F;stroke-width:3.676;stroke-linecap:round;stroke-linejoin:round;stroke-dasharray:0,11.241;}
	
		.st43{clip-path:url(#SVGID_00000026855184464157236660000008302062155631326871_);fill:none;stroke:#AD956F;stroke-width:3.676;stroke-linecap:round;stroke-linejoin:round;stroke-dasharray:0,5.66;}
	
		.st44{clip-path:url(#SVGID_00000026855184464157236660000008302062155631326871_);fill:none;stroke:#AD956F;stroke-width:4.901;stroke-linecap:round;stroke-linejoin:round;stroke-dasharray:0,15.005;}
	
		.st45{clip-path:url(#SVGID_00000008146481744813434920000001625640060443342217_);fill:none;stroke:#AD956F;stroke-width:4.901;stroke-linecap:round;stroke-linejoin:round;stroke-dasharray:0,14.66;}
	
		.st46{clip-path:url(#SVGID_00000008146481744813434920000001625640060443342217_);fill:none;stroke:#AD956F;stroke-width:4.901;stroke-linecap:round;stroke-linejoin:round;}
	.st47{clip-path:url(#SVGID_00000026855184464157236660000008302062155631326871_);fill:#F1F9FC;}
	.st48{filter:url(#Adobe_OpacityMaskFilter_00000061431483940253458790000013452670264039720860_);}
	
		.st49{clip-path:url(#SVGID_00000078754317078583331380000011752682154788854200_);fill:url(#SVGID_00000007426961392258775070000009082909725996154783_);}
	
		.st50{clip-path:url(#SVGID_00000078754317078583331380000011752682154788854200_);mask:url(#SVGID_00000107585736367325239050000017711021764372843947_);}
	.st51{clip-path:url(#SVGID_00000041294462005522952910000016703176812975604886_);}
	.st52{clip-path:url(#SVGID_00000018921601770436960410000010063973350991017352_);fill:#AD956F;}
	.st53{clip-path:url(#SVGID_00000058590690077821274750000005910122766446307252_);}
	.st54{clip-path:url(#SVGID_00000021839338284598314680000005611664330538714044_);}
	.st55{clip-path:url(#SVGID_00000174567663528236402180000011178911082682058430_);fill:#AD956F;}
	
		.st56{clip-path:url(#SVGID_00000021839338284598314680000005611664330538714044_);fill:none;stroke:#AD956F;stroke-width:2.835;stroke-linecap:round;stroke-linejoin:round;stroke-dasharray:0,8.671;}
	
		.st57{clip-path:url(#SVGID_00000021839338284598314680000005611664330538714044_);fill:none;stroke:#AD956F;stroke-width:2.835;stroke-linecap:round;stroke-linejoin:round;}
	
		.st58{clip-path:url(#SVGID_00000021839338284598314680000005611664330538714044_);fill:none;stroke:#AD956F;stroke-width:2.835;stroke-linecap:round;stroke-linejoin:round;stroke-dasharray:0,9.401;}
	
		.st59{clip-path:url(#SVGID_00000021839338284598314680000005611664330538714044_);fill:none;stroke:#AD956F;stroke-width:2.835;stroke-linecap:round;stroke-linejoin:round;stroke-dasharray:0,8.929;}
	
		.st60{clip-path:url(#SVGID_00000021839338284598314680000005611664330538714044_);fill:none;stroke:#AD956F;stroke-width:2.835;stroke-linecap:round;stroke-linejoin:round;stroke-dasharray:0,8.688;}
	
		.st61{clip-path:url(#SVGID_00000181784183212953027920000012449194390277754508_);fill:none;stroke:#AD956F;stroke-width:5.001;stroke-linecap:round;stroke-linejoin:round;stroke-dasharray:0,15.112;}
	
		.st62{clip-path:url(#SVGID_00000181784183212953027920000012449194390277754508_);fill:none;stroke:#AD956F;stroke-width:5.001;stroke-linecap:round;stroke-linejoin:round;}
	.st63{clip-path:url(#SVGID_00000083050434642130394100000004285014304282298762_);fill:#B79B6F;}
	.st64{clip-path:url(#SVGID_00000083050434642130394100000004285014304282298762_);fill:#B96658;}
	.st65{filter:url(#Adobe_OpacityMaskFilter_00000098941957807412318350000013783152329752469422_);}
	
		.st66{clip-path:url(#SVGID_00000020376368259696210980000018307936054484298174_);fill:url(#SVGID_00000043426232179470835840000013182926527890248884_);}
	
		.st67{clip-path:url(#SVGID_00000020376368259696210980000018307936054484298174_);mask:url(#SVGID_00000120545394906778851840000016845275128637398446_);}
	.st68{clip-path:url(#SVGID_00000173878516571446797420000005015372706480593319_);fill:#B96E4E;}
	.st69{clip-path:url(#SVGID_00000173878516571446797420000005015372706480593319_);}
	.st70{filter:url(#Adobe_OpacityMaskFilter_00000141454912325533423600000001923139976942228910_);}
	
		.st71{clip-path:url(#SVGID_00000178165835359915499450000012203963404930185360_);fill:url(#SVGID_00000155846339490767157920000002295047245720812685_);}
	.st72{clip-path:url(#SVGID_00000178165835359915499450000012203963404930185360_);}
	.st73{clip-path:url(#SVGID_00000111151800869135090520000004261492231586738093_);}
	.st74{clip-path:url(#SVGID_00000077309457290522471700000015795809441594886833_);}
	.st75{clip-path:url(#SVGID_00000069378597847475274940000007842271019500721847_);}
	.st76{clip-path:url(#SVGID_00000173871030201127845500000000725886502263945618_);fill:#AD956F;}
	
		.st77{clip-path:url(#SVGID_00000069378597847475274940000007842271019500721847_);fill:none;stroke:#AD956F;stroke-width:3.676;stroke-linecap:round;stroke-linejoin:round;stroke-dasharray:0,10.604;}
	
		.st78{clip-path:url(#SVGID_00000069378597847475274940000007842271019500721847_);fill:none;stroke:#AD956F;stroke-width:3.676;stroke-linecap:round;stroke-linejoin:round;}
	
		.st79{clip-path:url(#SVGID_00000069378597847475274940000007842271019500721847_);fill:none;stroke:#AD956F;stroke-width:3.676;stroke-linecap:round;stroke-linejoin:round;stroke-dasharray:0,11.759;}
	
		.st80{clip-path:url(#SVGID_00000069378597847475274940000007842271019500721847_);fill:none;stroke:#AD956F;stroke-width:3.676;stroke-linecap:round;stroke-linejoin:round;stroke-dasharray:0,9.483;}
	
		.st81{clip-path:url(#SVGID_00000069378597847475274940000007842271019500721847_);fill:none;stroke:#AD956F;stroke-width:3.676;stroke-linecap:round;stroke-linejoin:round;stroke-dasharray:0,9.83;}
	
		.st82{clip-path:url(#SVGID_00000069378597847475274940000007842271019500721847_);fill:none;stroke:#AD956F;stroke-width:3.676;stroke-linecap:round;stroke-linejoin:round;stroke-dasharray:0,10.693;}
	
		.st83{clip-path:url(#SVGID_00000069378597847475274940000007842271019500721847_);fill:none;stroke:#AD956F;stroke-width:3.676;stroke-linecap:round;stroke-linejoin:round;stroke-dasharray:0,10.727;}
	
		.st84{clip-path:url(#SVGID_00000069378597847475274940000007842271019500721847_);fill:none;stroke:#AD956F;stroke-width:3.676;stroke-linecap:round;stroke-linejoin:round;stroke-dasharray:0,10.488;}
	
		.st85{clip-path:url(#SVGID_00000069378597847475274940000007842271019500721847_);fill:none;stroke:#AD956F;stroke-width:3.676;stroke-linecap:round;stroke-linejoin:round;stroke-dasharray:0,10.651;}
	
		.st86{clip-path:url(#SVGID_00000069378597847475274940000007842271019500721847_);fill:none;stroke:#AD956F;stroke-width:3.676;stroke-linecap:round;stroke-linejoin:round;stroke-dasharray:0,11.255;}
	
		.st87{clip-path:url(#SVGID_00000000917851670464337000000000751436928545343626_);fill:none;stroke:#AD956F;stroke-width:4.901;stroke-linecap:round;stroke-linejoin:round;stroke-dasharray:0,14.717;}
	
		.st88{clip-path:url(#SVGID_00000000917851670464337000000000751436928545343626_);fill:none;stroke:#AD956F;stroke-width:4.901;stroke-linecap:round;stroke-linejoin:round;}
	.st89{filter:url(#Adobe_OpacityMaskFilter_00000158716714644587851570000009412419874837794981_);}
	
		.st90{clip-path:url(#SVGID_00000173879840189655582390000017666931754098333371_);fill:url(#SVGID_00000063611849303250940700000013492895894546319758_);}
	
		.st91{clip-path:url(#SVGID_00000173879840189655582390000017666931754098333371_);mask:url(#SVGID_00000142167850914165424800000017165540972651448450_);}
	.st92{clip-path:url(#SVGID_00000037673740501675482670000009385578855830868640_);}
	.st93{clip-path:url(#SVGID_00000097471838421230608200000015976943701554108821_);fill:#AD956F;}
	.st94{clip-path:url(#SVGID_00000069378597847475274940000007842271019500721847_);fill:#DBC6AB;}
	.st95{filter:url(#Adobe_OpacityMaskFilter_00000034810041128354503730000003368146653156303291_);}
	
		.st96{clip-path:url(#SVGID_00000128467655402982754470000015895186739649141169_);fill:url(#SVGID_00000060728259244186810670000010470604354606393480_);}
	
		.st97{clip-path:url(#SVGID_00000128467655402982754470000015895186739649141169_);mask:url(#SVGID_00000181081395320378814550000011272170303017405343_);}
	.st98{clip-path:url(#SVGID_00000053547499676850355470000014371873705194129073_);}
	.st99{fill:#FFFFFF;}
</style>
<g>
	<path class="st99" d="M155.8,87.9c-0.6,0.2-1.3,0.4-2.1,0.6c0,0.1,0,0.2,0.1,0.3c1-0.1,2-0.2,3.3-0.4c-1.6,1.1-3.2,1.8-4.9,2.2
		c-4.1,1.1-8.2,0.8-12.3-0.2c-1.2-0.3-2.3-0.8-3.3-1.4c-1.8-1.1-3.7-2-5.3-3.3c-2.4-1.8-4.8-3.8-7-5.9c-1.4-1.4-2.3-3.3-3.3-5
		c-0.7-1.1-1.1-2.4-1.6-3.6c-0.6-1.6-1.1-3.1-1.5-4.7c-1.8-6.6-0.4-12.7,2.4-18.7c1.2-2.6,2.7-5,4.9-6.9c4-3.2,8.4-5.6,13.5-6.2
		c2.8-0.3,5.5,0,8.3,0.5c1.8,0.4,3.5,1,5.2,1.6c2.2,0.8,4,2.3,5.8,3.8c2,1.7,3.6,3.8,5.2,6c0.6,0.9,1,2,1.4,3.1
		c0.5,1.3,1,2.6,1.3,3.9c0.5,2.8,0.8,5.7,1.1,8.5c0.2,1.5,0.3,3.1,0.2,4.6c0,0.9-0.3,1.8-0.5,2.7c-0.3,1.4-1.8,1.6-3.1,1.4
		c-1.2-0.1-1.8-1-1.9-2.2c0-1.7-0.1-3.3-0.1-5c0-0.6,0.2-1.2,0.1-1.8c-0.2-1.6-0.4-3.3-0.8-4.8c-0.4-1.8-0.9-3.5-1.5-5.2
		c-1.2-3-3.3-5.4-5.8-7.4c-0.9-0.7-1.9-1.2-2.9-1.7c-1.5-0.7-3-1.5-4.5-2.1c-3.6-1.3-7.2-0.9-10.7,0.6c-4.5,1.9-8,5-10.3,9.3
		c-1,1.9-1.6,4-2,6.2c-0.4,2.5-0.9,5-0.4,7.5c0.2,1,0.7,2,1,3c1,3.6,2.8,6.6,5.2,9.5c1.9,2.2,4,4.2,6.4,5.8c0.1,0.1,0.2,0.1,0.3,0.2
		c1.8,0.9,3.5,1.8,5.3,2.5c2,0.9,4.2,1.2,6.4,1.5C150.1,87,153,87.5,155.8,87.9"/>
	<path class="st99" d="M117,81c-0.2-0.1-0.3-0.1-0.4-0.2c-0.1,0.8,0,1.2,1,2.5c0.5,0.7,1.1,1.4,1.7,2.2c-0.3,0.1-0.5,0.3-0.7,0.4
		c-1.1-0.9-2.1-1.8-3.1-2.7c-1.8-1.6-3.2-3.4-4.3-5.5c-3-5.8-4.2-12.1-4.3-18.6c0-3.3,0.1-6.6,1-9.8c1.9-6.6,5.4-12.3,10.1-17.2
		c2.7-2.8,5.9-4.6,9.4-6.2c5.6-2.5,11.5-3.1,17.5-2.7c2,0.2,4.1,0.3,6.1,0.7c2.7,0.5,5.1,1.9,7.5,3.3c2.4,1.4,4.5,3.1,6.6,5
		c1.1,1,2.2,1.9,3.2,3c1.1,1.2,2.2,2.5,3.1,3.8c1,1.4,1.9,3,2.7,4.5c0.4,0.6,0.7,1.3,0.9,2c0.6,1.7,0.7,3.4-0.3,5
		c-0.5,0.8-1.3,1.1-2.2,1.2c-0.1,0-0.3,0-0.4-0.1c-1-0.6-1.8-1.4-2.2-2.5c-0.6-1.6-1.4-3.1-2.2-4.6c-0.6-1.2-1.4-2.3-2.2-3.4
		c-0.7-0.9-1.6-1.8-2.4-2.7c-2.2-2.2-4.7-4-7.4-5.6c0.2,0,0.4,0.1,0.6,0.1c0-0.1,0.1-0.1,0.1-0.2c-0.7-0.4-1.3-0.8-2-1.1
		c-5.7-2.6-11.6-3.3-17.8-2c-2.6,0.6-5.2,1.3-7.6,2.3c-3.4,1.4-6.1,3.9-8.6,6.6c-2.1,2.2-4.1,4.5-5.3,7.3c-1.1,2.6-2.5,5.1-2.9,7.9
		c-0.1,0.7-0.2,1.4,0.1,2.1c0.2,0.5-0.1,1.3-0.2,1.9c-0.7,6,0.2,11.7,2.2,17.3c0.7,1.8,1.6,3.6,2.4,5.4
		C116.8,80.5,116.9,80.7,117,81"/>
	<path class="st99" d="M99,49.9c0.2-1.4,0.3-2.9,0.5-4.4c-0.3,0-0.5,0-0.7,0c0.1-0.5,0.2-0.9,0.4-1.4c0.6-1.8,1.3-3.6,1.9-5.4
		c0.1-0.3,0-0.6,0.1-0.9c0.1-0.5,0.1-1,0.3-1.5c0.6-1.8,1.6-3.4,2.9-4.9c1.6-1.8,3.3-3.5,4.9-5.2c1.2-1.2,2.4-2.5,3.5-3.7
		c2.6-3,5.9-4.7,9.7-5.6c3.6-1,7.1-1.9,10.7-2.8c0.6-0.2,1.3-0.3,1.9-0.3c2.6-0.2,5.3-0.3,7.9-0.4c5.2-0.1,10.2,0.6,15.2,2
		c3,0.9,6,2,8.6,3.7c1.8,1.2,3.5,2.7,5.3,4c0.2,0.1,0.3,0.3,0.4,0.5c-0.6,0.3-0.4,0.6-0.2,1c0.3,0.6,0.5,1.3,0.5,1.9
		c0,0.9-0.6,1.6-1.5,1.8c-1.1,0.2-2.1,0.2-3.1-0.6c-1.2-0.9-2.6-1.7-3.9-2.5c-0.9-0.5-1.8-1-2.6-1.6c-1.1-0.8-2.3-1.3-3.6-1.6
		c-1.8-0.5-3.5-1.2-5.3-1.6c-3.7-0.9-7.3-2-11.2-1.6c-2.1,0.2-4.3,0.2-6.5,0.5c-1.8,0.3-3.6,0.8-5.3,1.3c-1.3,0.3-2.5,0.7-3.8,1.1
		c-4.3,1.2-8,3.6-11.5,6.2c-3.1,2.3-5,5.5-6.8,8.8c-0.5,0.9-1.1,1.8-1.7,2.7c-1.9,2.9-3.6,6-4.9,9.2c-0.1,0.2-0.5,0.5-0.6,0.4
		c-0.5-0.3-0.6,0.1-0.8,0.5c-0.1,0.3-0.3,0.5-0.5,0.8C99.2,50,99.1,49.9,99,49.9"/>
	<path class="st99" d="M105.4,22c0.1-0.2,0.1-0.4,0.3-0.7c-1.4,0.5-2.1,1.5-3.2,2.3c0.1-0.2,0.1-0.4,0.2-0.6c0-0.3,0-0.7,0.1-1
		c0.1-0.4,0.2-0.8,0.4-1.2c1.6-3.8,4.4-6.5,7.6-9c4-3.1,8.4-5.6,13.3-7.1c1.1-0.3,2.3-0.6,3.4-0.8c2.9-0.5,5.7-1,8.6-1.3
		c4-0.4,7.9-0.2,11.8,0.8c1.1,0.3,2.2,0.7,3.1,1.6c0.8,0.7,0.9,1.5,0.9,2.4c0,0.7-1.2,1.9-2,2c-0.9,0-1.9,0-2.8-0.2
		c-4.4-0.7-8.8-1.2-13.2-0.5c-4.7,0.8-9.1,2.4-13.5,4.4c-2.1,1-4.4,1.7-6.5,2.6c-2.1,0.9-4.1,2.1-5.6,3.9c-0.6,0.7-1.3,1.4-1.9,2.1
		c-0.2,0.2-0.6,0.3-0.8,0.4C105.4,22,105.4,22,105.4,22"/>
	<path class="st99" d="M174.8,63c-1.3,0.2-2.2-0.7-2.2-2c0-0.8,0.1-1.5,0.2-2.3c0-0.2,0.1-0.4,0.1-0.6c0-1.1,0.7-1.9,1.7-2.2
		c0.1,0,0.2-0.1,0.3-0.1c1,0.4,2,0.7,2.9,1.2c0.7,0.4,0.6,1.3,0.5,2c-0.1,0.7-0.2,1.4-0.4,2C177.4,62.2,176.2,63,174.8,63"/>
	<path class="st99" d="M166.3,78c0,1.6-1,2.6-2.2,3.3c-1,0.6-2.2,0.4-3.2-0.2c-0.2-0.2-0.4-0.5-0.5-0.8c-0.2-0.6-0.2-1.2-0.3-1.8
		c-0.3-1.4,0.7-2.7,2.1-2.9c0.7-0.1,1.4-0.2,2.1-0.3c0.7-0.1,1.5,0.3,1.7,1C166.1,76.9,166.2,77.4,166.3,78"/>
	<path class="st99" d="M174.1,34.1c-0.9-0.7-0.6-1.6-0.3-2.5c0.3-0.8,1-0.8,1.7-0.9c1.5-0.2,3.3,0.7,3.2,2.5c0,0.2,0.3,0.5,0.4,0.7
		c0.1,0.3,0.3,0.7,0.1,0.9c-1.1,1.7-2.7,2-4.5,1.1C173.8,35.4,173.6,34.9,174.1,34.1"/>
	<path class="st99" d="M155.2,9.8c-0.1-0.3-0.1-0.5-0.2-0.8C154.4,8,154.8,7.2,156,7c1.3-0.2,2.3,0.1,3.2,1c0.2,0.2,0.6,0.3,0.8,0.5
		c0.9,0.9,0.7,2-0.6,2.5c-0.6,0.2-1.4,0.2-2,0.1c-0.8-0.2-1.5-0.8-2.3-1.1C155.1,9.9,155.2,9.9,155.2,9.8"/>
	<path class="st99" d="M156.3,64.7c0.2,3.6,0.2,6.5-1.5,9.1c-0.8,1.2-2.6,2-4,1.7c-1.8-0.4-3.3-1.4-4.3-3c-1.1-1.8-1.9-3.8-2.1-5.9
		c-0.2-2.8-0.3-5.6-0.5-8.5c-0.2-3.1-0.9-6-2.8-8.5c-0.6-0.7-1.1-1.5-1.7-2.1c-0.4-0.4-1-0.7-1.4-1.1c-0.2-0.1-0.4-0.3-0.5-0.5
		c0.2-0.2,0.4-0.5,0.6-0.6c5.1-1.4,9.4-0.1,12.9,3.7c1.6,1.7,3.1,3.5,3.9,5.8C155.9,58.2,156.8,61.5,156.3,64.7"/>
	<path class="st99" d="M147.3,77.6c-0.1,0.1-0.2,0.2-0.4,0.3c0.9,0.2,1.7,0.4,2.6,0.5c-0.9,1-1.9,1.3-3.2,1.3
		c-7.5,0.1-14.4-4.4-17.1-11.5c-0.7-1.8-0.5-3.8-0.7-5.8c-0.2-3-0.7-5.9,0.4-8.7c0.5-1.3,1-2.5,1.8-3.6c0.5-0.7,1.5-1.3,2.3-1.3
		c1.7-0.2,3.4,0.2,4.4,1.9c0.8,1.4,1.8,2.7,2.4,4.2c0.4,1.1,0.5,2.4,0.6,3.5c0.3,3.2,0.4,6.4,0.7,9.6c0.2,2.4,1.1,4.5,2.5,6.5
		C144.5,75.9,145.8,76.8,147.3,77.6"/>
	<path class="st99" d="M9.3,125.6c1-2.8,2-5.2,3.2-7.2c1.1,2,2.1,4.4,3.2,7.2l0.9,2.8c0.4,1.4,0.8,2.7,1.1,4l0.1,0.5h3l-0.2-0.8
		c-0.9-3.6-2.9-10.7-6.6-16.7l-0.2-0.3h-2.6l-0.2,0.3c-3.7,6.1-5.7,13.1-6.6,16.7l-0.2,0.8h3l0.1-0.5c0.3-1.2,0.6-2.6,1.1-4
		L9.3,125.6z"/>
	<path class="st99" d="M50,117.8h5.4v15.1h2.9v-15.1h5.4V115H51.1c-0.6,0-1.1,0.5-1.1,1.1V117.8z"/>
	<path class="st99" d="M122.7,132.9h2.9V115h-1.8c-0.6,0-1.1,0.5-1.1,1.1V132.9z"/>
	<path class="st99" d="M197.8,125.7c0,4-2.7,4.6-4.3,4.6c-1.6,0-4.3-0.6-4.3-4.6v-8.4h-1.8c-0.6,0-1.1,0.5-1.1,1.1v7.5
		c0,3.5,1.9,7.2,7.2,7.2c5.3,0,7.2-3.7,7.2-7.2V115h-2.9V125.7z"/>
	<path class="st99" d="M222.8,117.8h5.4v15.1h2.9v-15.1h5.4V115h-12.7c-0.6,0-1.1,0.5-1.1,1.1V117.8z"/>
	<path class="st99" d="M265.5,130.4c-4,0-5.5-3.3-5.5-6.4c0-3.1,1.4-6.4,5.5-6.4c4,0,5.5,3.3,5.5,6.4
		C270.9,127.1,269.5,130.4,265.5,130.4 M271.9,117.7c-1.5-1.9-3.7-2.9-6.4-2.9c-2.7,0-4.9,1-6.4,2.9c-1.3,1.6-2,3.8-2,6.3
		c0,2.4,0.7,4.7,2,6.3c1.5,1.9,3.7,2.9,6.4,2.9c2.7,0,4.9-1,6.4-2.9c1.3-1.6,2-3.8,2-6.3C273.8,121.5,273.1,119.3,271.9,117.7"/>
	<path class="st99" d="M267.2,124c0,1-0.8,1.7-1.7,1.7c-1,0-1.7-0.8-1.7-1.7c0-1,0.8-1.7,1.7-1.7C266.4,122.2,267.2,123,267.2,124"
		/>
	<path class="st99" d="M14.2,131.2c0,1-0.8,1.7-1.7,1.7c-1,0-1.7-0.8-1.7-1.7c0-1,0.8-1.7,1.7-1.7C13.5,129.4,14.2,130.2,14.2,131.2
		"/>
	<path class="st99" d="M89,132.9h-2.9v-16.8c0-0.6,0.5-1.1,1.1-1.1h6.2c3.4,0,5.8,2.4,5.8,5.7c0,2.4-1.3,4.4-3.4,5.2
		c1.5,1.9,2.7,4,3.6,6l0.4,0.9h-3.1l-0.2-0.4c-1.1-2.3-2.5-4.4-4.1-6.1h-4.2v-2.8h5.2c1.6,0,2.9-1.3,2.9-2.8c0-1.8-1.2-3-2.9-3H89
		V132.9z"/>
	<path class="st99" d="M152.5,117.8h4.3c2,0,3,0.7,3,2.2s-1,2.2-3,2.2h-5.3v2.8h5.7c1.6,0,3.4,0.4,3.4,2.5c0,2.1-1.9,2.5-3.4,2.5
		h-4.7V117.8z M161.1,123.4c1-0.9,1.5-2.1,1.5-3.5c0-3.1-2.1-4.9-5.8-4.9h-6.2c-0.6,0-1.1,0.5-1.1,1.1v16.8h7.6c4,0,6.3-1.9,6.3-5.2
		C163.5,125.8,162.6,124.3,161.1,123.4"/>
	<rect x="31" y="124.2" class="st99" width="9.3" height="2.8"/>
	<rect x="4.2" y="139" class="st99" width="269.6" height="0.9"/>
	<path class="st99" d="M7,152.9c-0.5,0-1-0.1-1.5-0.4c-0.4-0.2-0.8-0.6-1-1c-0.2-0.4-0.4-0.9-0.4-1.4v-4.2h1.3v4.3
		c0,0.3,0.1,0.6,0.2,0.8c0.1,0.2,0.3,0.4,0.5,0.5c0.2,0.1,0.5,0.2,0.8,0.2c0.3,0,0.5-0.1,0.7-0.2c0.2-0.1,0.4-0.3,0.5-0.5
		c0.1-0.2,0.2-0.5,0.2-0.8v-4.3h1.3v4.3c0,0.5-0.1,1-0.4,1.4c-0.2,0.4-0.6,0.7-1,1C8,152.8,7.6,152.9,7,152.9"/>
	<path class="st99" d="M21.4,152.8l-0.4-1.3v-5.6h1.3v6.9H21.4z M21.4,152.8l-4.1-5.3l0.3-1.6l4.1,5.3L21.4,152.8z M16.6,152.8v-6.9
		h0.9l0.4,1.3v5.6H16.6z"/>
	<polygon class="st99" points="28.8,152.8 31.6,145.9 32.7,145.9 35.4,152.8 34,152.8 31.9,147.2 32.4,147.2 30.2,152.8 	"/>
	<rect x="29.6" y="151.7" class="st99" width="4.9" height="1.1"/>
	<path class="st99" d="M53.3,145.9h1.3v6.9h-1.3V145.9z M49.9,148.7h3.9v1.2h-3.9V148.7z M49,145.9h1.3v6.9H49V145.9z"/>
	<rect x="61.6" y="145.9" class="st99" width="1.3" height="6.9"/>
	<path class="st99" d="M71.8,152.9c-0.6,0-1-0.1-1.4-0.3c-0.4-0.2-0.8-0.5-1.1-0.9l0.9-0.9c0.2,0.3,0.4,0.5,0.7,0.6
		c0.3,0.1,0.6,0.2,1,0.2c0.3,0,0.6-0.1,0.8-0.2c0.2-0.1,0.3-0.3,0.3-0.6c0-0.2-0.1-0.4-0.2-0.5c-0.1-0.1-0.3-0.2-0.5-0.3
		c-0.2-0.1-0.4-0.2-0.6-0.3c-0.2-0.1-0.5-0.2-0.7-0.3c-0.2-0.1-0.4-0.2-0.6-0.4c-0.2-0.1-0.3-0.3-0.5-0.6c-0.1-0.2-0.2-0.5-0.2-0.9
		c0-0.4,0.1-0.8,0.3-1.1c0.2-0.3,0.5-0.5,0.8-0.7c0.4-0.2,0.8-0.2,1.2-0.2c0.5,0,0.9,0.1,1.3,0.3c0.4,0.2,0.7,0.4,0.9,0.7l-0.9,0.9
		c-0.2-0.2-0.4-0.4-0.6-0.5c-0.2-0.1-0.5-0.2-0.7-0.2c-0.3,0-0.6,0.1-0.7,0.2c-0.2,0.1-0.3,0.3-0.3,0.5c0,0.2,0.1,0.3,0.2,0.5
		c0.1,0.1,0.3,0.2,0.5,0.3c0.2,0.1,0.4,0.2,0.6,0.2c0.2,0.1,0.5,0.2,0.7,0.3c0.2,0.1,0.4,0.2,0.6,0.4c0.2,0.2,0.4,0.4,0.5,0.6
		c0.1,0.2,0.2,0.5,0.2,0.9c0,0.6-0.2,1.1-0.7,1.5C73.2,152.8,72.5,152.9,71.8,152.9"/>
	<path class="st99" d="M82.3,146.1h1.3v6.8h-1.3V146.1z M80.1,145.9h5.8v1.2h-5.8V145.9z"/>
	<path class="st99" d="M95.1,151.7c0.4,0,0.8-0.1,1.2-0.3c0.3-0.2,0.6-0.5,0.8-0.8c0.2-0.3,0.3-0.8,0.3-1.2c0-0.3-0.1-0.7-0.2-0.9
		c-0.1-0.3-0.3-0.5-0.5-0.7c-0.2-0.2-0.4-0.4-0.7-0.5c-0.3-0.1-0.6-0.2-0.9-0.2c-0.4,0-0.8,0.1-1.1,0.3c-0.3,0.2-0.6,0.5-0.8,0.8
		c-0.2,0.3-0.3,0.8-0.3,1.2c0,0.3,0.1,0.7,0.2,1c0.1,0.3,0.3,0.5,0.5,0.7c0.2,0.2,0.4,0.4,0.7,0.5C94.5,151.6,94.8,151.7,95.1,151.7
		 M95.1,153c-0.5,0-1-0.1-1.4-0.3c-0.4-0.2-0.8-0.4-1.1-0.8c-0.3-0.3-0.6-0.7-0.8-1.1c-0.2-0.4-0.3-0.9-0.3-1.4c0-0.5,0.1-1,0.3-1.4
		c0.2-0.4,0.4-0.8,0.8-1.1c0.3-0.3,0.7-0.6,1.1-0.8c0.4-0.2,0.9-0.3,1.4-0.3c0.5,0,1,0.1,1.4,0.3c0.4,0.2,0.8,0.4,1.1,0.8
		c0.3,0.3,0.6,0.7,0.8,1.1c0.2,0.4,0.3,0.9,0.3,1.4s-0.1,1-0.3,1.4c-0.2,0.4-0.4,0.8-0.8,1.1c-0.3,0.3-0.7,0.6-1.1,0.8
		C96.1,152.9,95.6,153,95.1,153"/>
	<path class="st99" d="M109,152.8l-2.3-3l1.2-0.4l2.7,3.4H109z M106.2,150v-1h1.6c0.3,0,0.6-0.1,0.8-0.3c0.2-0.2,0.3-0.4,0.3-0.7
		c0-0.3-0.1-0.5-0.3-0.7c-0.2-0.2-0.4-0.3-0.8-0.3h-1.6v-1.1h1.7c0.4,0,0.8,0.1,1.2,0.3c0.3,0.2,0.6,0.4,0.8,0.7
		c0.2,0.3,0.3,0.6,0.3,1c0,0.4-0.1,0.8-0.3,1.1c-0.2,0.3-0.5,0.5-0.8,0.7c-0.3,0.2-0.7,0.3-1.2,0.3H106.2z M105.3,145.9h1.3v6.9
		h-1.3V145.9z"/>
	<rect x="116.9" y="145.9" class="st99" width="1.3" height="6.9"/>
	<path class="st99" d="M161.1,152.8l-0.4-1.3v-5.6h1.3v6.9H161.1z M161.1,152.8l-4.1-5.3l0.3-1.6l4.1,5.3L161.1,152.8z M156.3,152.8
		v-6.9h0.9l0.4,1.3v5.6H156.3z"/>
	<path class="st99" d="M179.6,152.9c-0.5,0-1-0.1-1.4-0.3c-0.4-0.2-0.8-0.4-1.1-0.8c-0.3-0.3-0.6-0.7-0.7-1.1
		c-0.2-0.4-0.3-0.9-0.3-1.4c0-0.5,0.1-1,0.3-1.4c0.2-0.4,0.4-0.8,0.7-1.1c0.3-0.3,0.7-0.6,1.1-0.8c0.4-0.2,0.9-0.3,1.4-0.3
		c0.6,0,1,0.1,1.5,0.3c0.4,0.2,0.8,0.4,1.1,0.7l-0.9,0.9c-0.2-0.2-0.4-0.4-0.7-0.5c-0.3-0.1-0.6-0.2-1-0.2c-0.3,0-0.6,0.1-0.9,0.2
		c-0.3,0.1-0.5,0.3-0.7,0.5c-0.2,0.2-0.3,0.5-0.5,0.7c-0.1,0.3-0.2,0.6-0.2,0.9c0,0.3,0.1,0.7,0.2,0.9c0.1,0.3,0.3,0.5,0.5,0.7
		c0.2,0.2,0.4,0.4,0.7,0.5c0.3,0.1,0.6,0.2,0.9,0.2c0.4,0,0.7-0.1,1-0.2c0.3-0.1,0.5-0.3,0.7-0.5l0.9,0.9c-0.3,0.3-0.7,0.6-1.1,0.7
		C180.7,152.9,180.2,152.9,179.6,152.9"/>
	<path class="st99" d="M201.9,152.8v-1.2h1.8c0.4,0,0.8-0.1,1.2-0.3c0.3-0.2,0.6-0.5,0.8-0.8c0.2-0.3,0.3-0.7,0.3-1.2
		c0-0.5-0.1-0.8-0.3-1.2c-0.2-0.3-0.5-0.6-0.8-0.8c-0.3-0.2-0.7-0.3-1.2-0.3h-1.8v-1.2h1.8c0.5,0,1,0.1,1.4,0.3
		c0.4,0.2,0.8,0.4,1.1,0.7c0.3,0.3,0.6,0.7,0.8,1.1c0.2,0.4,0.3,0.9,0.3,1.4c0,0.5-0.1,1-0.3,1.4c-0.2,0.4-0.4,0.8-0.8,1.1
		c-0.3,0.3-0.7,0.6-1.1,0.7c-0.4,0.2-0.9,0.3-1.4,0.3H201.9z M201,145.9h1.3v6.9H201V145.9z"/>
	<path class="st99" d="M235.1,146.1h1.3v6.8h-1.3V146.1z M232.9,145.9h5.8v1.2h-5.8V145.9z"/>
	<path class="st99" d="M256.4,147.1v-1.2h5v0.9l-1,0.2H256.4z M256.2,152.8v-0.9l1-0.2h4.1v1.2H256.2z M256.2,151.9l3.6-5h1.6
		l-3.6,5H256.2z"/>
	<path class="st99" d="M145.9,151.7h3.2v1.2h-3.2V151.7z M145.9,148.7h2.4v1.1h-2.4V148.7z M145.9,145.9h3.8v1.2h-3.8V145.9z
		 M144.9,145.9h1.3v6.9h-1.3V145.9z"/>
	<polygon class="st99" points="124.7,152.8 127.5,145.9 128.6,145.9 131.3,152.8 129.9,152.8 127.8,147.2 128.3,147.2 126.1,152.8 	
		"/>
	<rect x="125.5" y="151.7" class="st99" width="4.9" height="1.1"/>
	<polygon class="st99" points="188,152.8 190.8,145.9 191.9,145.9 194.7,152.8 193.2,152.8 191.1,147.2 191.6,147.2 189.4,152.8 	
		"/>
	<rect x="188.8" y="151.7" class="st99" width="4.9" height="1.1"/>
	<polygon class="st99" points="213.3,152.8 216.1,145.9 217.2,145.9 220,152.8 218.6,152.8 216.4,147.2 216.9,147.2 214.7,152.8 	
		"/>
	<rect x="214.2" y="151.7" class="st99" width="4.9" height="1.1"/>
	<polygon class="st99" points="243.7,152.8 246.5,145.9 247.6,145.9 250.3,152.8 248.9,152.8 246.8,147.2 247.3,147.2 245.1,152.8 	
		"/>
	<rect x="244.5" y="151.7" class="st99" width="4.9" height="1.1"/>
	<polygon class="st99" points="267.2,152.8 270,145.9 271,145.9 273.8,152.8 272.4,152.8 270.3,147.2 270.7,147.2 268.6,152.8 	"/>
	<rect x="268" y="151.7" class="st99" width="4.9" height="1.1"/>
</g>
</svg>
